<svg width="1933" height="829" viewBox="0 0 1933 829" fill="none" xmlns="http://www.w3.org/2000/svg">
<path fill-rule="evenodd" clip-rule="evenodd" d="M515.475 101.982C594.184 77.071 687.073 11.1422 757.071 49.9665C832.622 91.8704 772.386 201.067 814.437 267.799C846.095 318.038 943.625 326.36 965.136 380.149C986.361 433.224 931.701 486.701 924.198 542.259C915.663 605.453 962.615 678.89 917.815 730.555C873.636 781.503 781.017 781.843 706.51 793.3C643.108 803.049 579.674 787.376 515.475 792.424C443.904 798.052 374.671 842.707 306.118 824.782C238.433 807.084 209.461 741.784 160.168 699.52C106.16 653.214 3.58864 626.69 0.0998674 562.401C-3.65862 493.143 99.655 453.856 143.634 394.846C173.643 354.58 183.244 306.352 218.624 269.192C254.113 231.917 301.633 205.808 349.04 179.105C402.269 149.121 455.332 121.016 515.475 101.982Z" fill="#EFF7EB"/>
<path fill-rule="evenodd" clip-rule="evenodd" d="M1394.4 803.077C1499.18 823.523 1582.67 731.688 1672.11 683.786C1765.53 633.757 1895.69 603.677 1927.1 517.777C1958.46 432.024 1856.09 355.194 1823.53 269.724C1789.94 181.578 1837.5 50.7992 1733.59 9.84491C1624.04 -33.328 1513.39 78.1349 1394.4 100.602C1314.51 115.688 1222.41 81.6072 1155.19 119.059C1087.71 156.661 1091.23 234.68 1051.14 291.868C996.644 369.608 837.472 430.669 878.757 513.379C921.164 598.336 1106.9 539.032 1200.87 591.826C1292.65 643.389 1285.21 781.769 1394.4 803.077Z" fill="#FFC68B" fill-opacity="0.15"/>
</svg>
