<svg width="1920" height="829" viewBox="0 0 1920 829" fill="none" xmlns="http://www.w3.org/2000/svg">
<path fill-rule="evenodd" clip-rule="evenodd" d="M508.475 101.982C587.184 77.071 680.073 11.1422 750.071 49.9665C825.622 91.8704 765.386 201.067 807.437 267.799C839.095 318.038 936.625 326.36 958.136 380.149C979.361 433.224 924.701 486.701 917.198 542.259C908.663 605.453 955.615 678.89 910.815 730.555C866.636 781.503 774.017 781.843 699.51 793.3C636.108 803.049 572.674 787.376 508.475 792.424C436.904 798.052 367.671 842.707 299.118 824.782C231.433 807.084 202.461 741.784 153.168 699.52C99.1598 653.214 -3.41136 626.69 -6.90013 562.401C-10.6586 493.143 92.655 453.856 136.634 394.846C166.643 354.58 176.244 306.352 211.624 269.192C247.113 231.917 294.633 205.808 342.04 179.105C395.269 149.121 448.332 121.016 508.475 101.982Z" fill="#F1F9FF"/>
<path fill-rule="evenodd" clip-rule="evenodd" d="M1387.4 803.077C1492.18 823.523 1575.67 731.688 1665.11 683.786C1758.53 633.757 1888.69 603.677 1920.1 517.777C1951.46 432.024 1849.09 355.194 1816.53 269.724C1782.94 181.578 1830.5 50.7992 1726.59 9.84491C1617.04 -33.328 1506.39 78.1349 1387.4 100.602C1307.51 115.688 1215.41 81.6072 1148.19 119.059C1080.71 156.661 1084.23 234.68 1044.14 291.868C989.644 369.608 830.472 430.669 871.757 513.379C914.164 598.336 1099.9 539.032 1193.87 591.826C1285.65 643.389 1278.21 781.769 1387.4 803.077Z" fill="#FFC68B" fill-opacity="0.15"/>
</svg>
