<svg width="2356" height="1069" viewBox="0 0 2356 1069" fill="none" xmlns="http://www.w3.org/2000/svg">
<path fill-rule="evenodd" clip-rule="evenodd" d="M1775.99 3.28235C1659.66 -19.6756 1566.96 83.4394 1467.66 137.225C1363.94 193.399 1219.42 227.174 1184.55 323.625C1149.73 419.911 1263.39 506.178 1299.55 602.146C1336.83 701.12 1284.03 847.961 1399.4 893.946C1521.03 942.422 1643.88 817.268 1775.99 792.041C1864.69 775.102 1966.95 813.369 2041.58 771.317C2116.51 729.096 2112.59 641.494 2157.1 577.283C2217.61 489.994 2394.34 421.432 2348.5 328.563C2301.41 233.172 2095.2 299.76 1990.86 240.481C1888.96 182.585 1897.22 27.2078 1775.99 3.28235Z" fill="#FFC68B" fill-opacity="0.15"/>
<path fill-rule="evenodd" clip-rule="evenodd" d="M580.011 167.282C696.341 144.324 789.041 247.439 888.344 301.225C992.058 357.399 1136.58 391.174 1171.45 487.625C1206.27 583.911 1092.61 670.178 1056.45 766.146C1019.17 865.12 1071.97 1011.96 956.596 1057.95C834.971 1106.42 712.116 981.268 580.011 956.041C491.307 939.102 389.046 977.369 314.419 935.317C239.494 893.096 243.409 805.494 198.897 741.283C138.388 653.994 -38.3359 585.432 7.50235 492.563C54.5856 397.172 260.802 463.76 365.135 404.481C467.035 346.585 458.778 191.208 580.011 167.282Z" fill="#F1F9FF"/>
</svg>
