<svg width="57" height="13" viewBox="0 0 57 13" fill="none" xmlns="http://www.w3.org/2000/svg">
<g clip-path="url(#clip0_2021_488)">
<path fill-rule="evenodd" clip-rule="evenodd" d="M36.9076 7.05845C36.9408 7.27845 36.9573 7.44768 37.0071 7.61691C37.372 9.19075 38.5829 10.24 40.1588 10.3754C41.5521 10.4938 42.6469 9.95229 43.4597 8.7846C43.8578 8.22614 44.5047 8.1246 45.019 8.58152C45.3175 8.83537 45.3507 9.17383 45.1185 9.49537C44.9858 9.6646 44.8697 9.83383 44.737 10.02C44.2062 10.7646 43.5095 11.2723 42.6469 11.5769C41.2536 12.0677 39.8602 12.1354 38.4834 11.6108C36.6256 10.9169 35.5308 9.52922 35.2156 7.54922C35.0332 6.33076 35.1493 5.11229 35.6967 4.01229C36.4929 2.43845 37.737 1.47383 39.4621 1.18614C40.6066 0.999987 41.7346 1.11845 42.7962 1.64306C44.3057 2.37076 45.218 3.60614 45.5664 5.24768C45.6659 5.7046 45.6991 6.16152 45.7322 6.61845C45.7654 6.90614 45.6327 7.0246 45.3507 7.04152C45.218 7.04152 45.1019 7.04152 44.9692 7.04152C42.3981 7.04152 39.827 7.04152 37.2725 7.04152C37.1564 7.05845 37.0735 7.05845 36.9076 7.05845ZM43.9242 5.33229C43.7085 3.85999 41.9668 2.57383 40.3578 2.67537C38.6825 2.77691 37.0237 4.07999 36.9573 5.33229C39.263 5.33229 41.6019 5.33229 43.9242 5.33229Z" fill="#9B9EA0"/>
<path fill-rule="evenodd" clip-rule="evenodd" d="M23.737 7.00805C23.7536 7.16036 23.7701 7.2619 23.7867 7.38036C24.1019 9.12344 25.4953 10.325 27.2204 10.3588C28.5308 10.3757 29.5427 9.83421 30.3057 8.75113C30.7038 8.17575 31.4171 8.10805 31.9147 8.61575C32.1469 8.86959 32.1967 9.17421 31.9645 9.47882C31.8649 9.63113 31.7654 9.76652 31.6493 9.88498C31.0853 10.7311 30.3057 11.2727 29.3602 11.5942C27.9668 12.0681 26.5735 12.1019 25.2299 11.5604C23.3057 10.7988 22.2275 9.29267 21.9953 7.19421C21.8792 6.17882 21.9787 5.19728 22.3934 4.26652C23.2062 2.50651 24.5166 1.42344 26.4242 1.16959C27.436 1.03421 28.4479 1.11882 29.3768 1.50805C31.0687 2.21882 32.0474 3.55575 32.4289 5.36652C32.4953 5.77267 32.545 6.21267 32.5616 6.61882C32.5782 6.95729 32.5119 7.02498 32.1635 7.02498C31.5664 7.02498 30.936 7.02498 30.3223 7.02498C28.2654 7.02498 26.2085 7.02498 24.1848 7.02498C24.0356 7.00805 23.9029 7.00805 23.737 7.00805ZM30.7867 5.2819C30.5711 3.82651 28.8792 2.59113 27.2204 2.62498C25.6114 2.65882 23.936 3.97882 23.8033 5.2819C26.1256 5.2819 28.4313 5.2819 30.7867 5.2819Z" fill="#9B9EA0"/>
<path fill-rule="evenodd" clip-rule="evenodd" d="M52.5995 7.7863C52.7322 7.90476 52.7986 7.97245 52.8815 8.04014C53.7773 8.8186 54.673 9.59707 55.5521 10.3755C55.6019 10.4263 55.6848 10.494 55.7346 10.5448C56.0664 10.8832 56.0995 11.374 55.7844 11.7125C55.4858 12.0509 55.0213 12.1017 54.673 11.814C54.0427 11.2894 53.4455 10.7478 52.8318 10.2232C51.9526 9.46168 51.0901 8.70014 50.2109 7.9386C50.1446 7.87091 50.045 7.80322 49.9123 7.70168C49.9123 7.88783 49.8957 8.0063 49.8957 8.12476C49.8957 10.274 49.8957 8.6663 49.8957 10.8155C49.8957 10.9171 49.8957 11.0186 49.8957 11.1201C49.8626 11.594 49.5142 11.9325 49.0498 11.8986C48.6019 11.8817 48.3033 11.5432 48.2867 11.0694C48.2867 10.9678 48.2867 10.8663 48.2867 10.7648C48.2867 6.51707 48.2867 6.0263 48.2867 1.7786C48.2867 1.64322 48.2867 1.52476 48.2867 1.38937C48.2867 1.08476 48.3199 1.03399 48.6019 1.03399C48.9834 1.01706 49.3649 1.01706 49.7464 1.01706C50.6588 1.01706 51.6043 1.05091 52.5166 1.00014C54.0593 0.932449 55.7844 2.20168 55.9502 4.0463C56.0995 5.70476 54.9882 7.2786 53.3294 7.61706C53.1138 7.66783 52.8815 7.73553 52.5995 7.7863ZM49.7962 6.48322C49.8957 6.50014 49.9621 6.50014 50.0119 6.50014C50.7749 6.50014 51.5545 6.50014 52.3175 6.50014C52.5332 6.50014 52.7654 6.48322 52.9811 6.3986C53.6943 6.1786 54.2583 5.7386 54.4408 4.96014C54.7559 3.62322 53.7773 2.40476 52.4337 2.40476C51.6374 2.40476 50.8578 2.40476 50.045 2.40476C49.9455 2.40476 49.8626 2.42168 49.763 2.42168C49.7962 3.77553 49.7962 5.11245 49.7962 6.48322Z" fill="#9B9EA0"/>
<path fill-rule="evenodd" clip-rule="evenodd" d="M17.7654 7.02484C16.2393 7.02484 14.763 7.02484 13.2536 7.02484C13.2536 7.16023 13.237 7.27869 13.237 7.39715C13.237 8.58177 13.237 9.74946 13.237 10.9341C13.237 11.0864 13.237 11.2387 13.2038 11.3572C13.0877 11.7125 12.7228 11.9325 12.3744 11.9156C11.9929 11.8818 11.6777 11.5772 11.628 11.1879C11.6114 11.0864 11.628 11.0018 11.628 10.9002C11.628 6.68638 11.6114 6.17869 11.6114 1.98177C11.6114 1.81254 11.628 1.64331 11.6777 1.491C11.8104 1.13561 12.1754 0.932537 12.5569 0.983306C12.9052 1.03408 13.2038 1.33869 13.237 1.711C13.2536 1.82946 13.237 1.931 13.237 2.04946C13.237 4.21561 13.2536 2.67561 13.2536 4.84177C13.2536 4.97715 13.2701 5.09561 13.2701 5.21407C13.5521 5.28177 17.4668 5.28177 17.7654 5.21407C17.7654 5.11254 17.782 5.011 17.782 4.89254C17.782 3.94484 17.782 2.98023 17.782 2.03254C17.782 1.931 17.782 1.84638 17.782 1.74484C17.8152 1.32177 18.1303 1.00023 18.545 0.983306C18.9597 0.966383 19.3412 1.28792 19.391 1.711C19.4076 1.81254 19.391 1.89715 19.391 1.99869C19.391 4.96023 19.391 7.90484 19.391 10.8664C19.391 10.9679 19.391 11.0525 19.391 11.1541C19.3412 11.5772 18.9763 11.9156 18.5616 11.8987C18.1469 11.8818 17.8152 11.5433 17.7654 11.1202C17.7654 11.0187 17.7654 10.9341 17.7654 10.8325C17.7654 9.69869 17.7654 8.531 17.7654 7.39715C17.7654 7.29561 17.7654 7.17715 17.7654 7.02484Z" fill="#9B9EA0"/>
<path fill-rule="evenodd" clip-rule="evenodd" d="M4.56161 11.9835C3.48341 11.9666 2.47157 11.7297 1.54266 11.1543C1.14455 10.9174 0.779623 10.6128 0.481045 10.2574C0.331756 10.0712 0.149291 9.88508 0.0829405 9.64815C-0.0165856 9.34354 -0.0331733 9.00508 0.248817 8.73431C0.563983 8.42969 0.995263 8.31123 1.42654 8.59892C1.84123 8.90354 2.04029 9.29277 2.38863 9.64815C2.88626 10.1558 3.53318 10.4266 4.22986 10.5112C4.87678 10.5789 5.50711 10.562 6.13744 10.342C6.38626 10.2405 6.65166 10.122 6.8673 9.95277C7.26541 9.49585 7.38152 8.85277 6.90048 8.41277C6.66825 8.20969 6.36967 8.05738 6.07109 7.922C5.34123 7.60046 4.5782 7.38046 3.81517 7.17738C3.18484 7.02508 2.58768 6.822 1.95735 6.63585C1.72512 6.56815 1.49289 6.43277 1.27725 6.31431C0.696685 5.99277 0.364931 5.48508 0.265405 4.842C0.0829405 3.50508 0.563983 2.30354 1.70853 1.71123C3.5 0.814307 5.35782 0.898923 7.14929 1.93123C7.48104 2.11738 7.79621 2.40508 8.0782 2.65892C8.29384 2.84508 8.45972 3.11585 8.54266 3.40354C8.62559 3.75892 8.45972 4.13123 8.02844 4.23277C7.66351 4.31738 7.33176 4.19892 7.06635 3.91123C7.01659 3.86046 6.96683 3.79277 6.93365 3.742C6.51896 3.09892 5.90522 2.74354 5.17536 2.60815C4.4455 2.47277 3.71564 2.48969 3.01896 2.77738C2.77014 2.87892 2.50474 3.01431 2.30569 3.20046C2.00711 3.60661 1.891 4.14815 2.2891 4.65585C2.60427 4.96046 2.9692 5.12969 3.3673 5.21431C4.24645 5.43431 5.14218 5.67123 6.02133 5.89123C6.58531 6.04354 7.1327 6.22969 7.64692 6.53431C8.31043 6.88969 8.79147 7.41431 8.95735 8.17585C9.1564 9.10662 8.95735 9.98661 8.24408 10.6635C7.43128 11.4082 6.50237 11.8143 5.42417 11.9328C5.12559 11.9666 4.82702 11.9666 4.56161 11.9835Z" fill="#9B9EA0"/>
</g>
<defs>
<clipPath id="clip0_2021_488">
<rect width="57" height="13" fill="white"/>
</clipPath>
</defs>
</svg>
