<svg width="24" height="24" viewBox="0 0 24 24" fill="none" xmlns="http://www.w3.org/2000/svg">
<path d="M12 21C4.49999 21 0.299994 12.8 0.0999939 12.4C-6.10203e-06 12.1 -6.10203e-06 11.8 0.0999939 11.5C0.299994 11.2 4.49999 3 12 3C19.5 3 23.7 11.2 23.9 11.6C24 11.9 24 12.2 23.9 12.5C23.7 12.8 19.5 21 12 21ZM2.09999 12C2.99999 13.6 6.59999 19 12 19C17.4 19 20.9 13.6 21.9 12C21 10.4 17.4 5 12 5C6.59999 5 3.09999 10.4 2.09999 12Z" fill="#EE761C"/>
<path d="M12 16C9.8 16 8 14.2 8 12C8 9.8 9.8 8 12 8C14.2 8 16 9.8 16 12C16 14.2 14.2 16 12 16ZM12 10C10.9 10 10 10.9 10 12C10 13.1 10.9 14 12 14C13.1 14 14 13.1 14 12C14 10.9 13.1 10 12 10Z" fill="#EE761C"/>
</svg>
