<svg width="106" height="106" viewBox="0 0 106 106" fill="none" xmlns="http://www.w3.org/2000/svg">
<circle cx="53" cy="53" r="53" fill="#FFCC7B"/>
<g clip-path="url(#clip0_2001_375)">
<path d="M52.5 58.9453C56.0539 58.9453 58.9453 56.0539 58.9453 52.5C58.9453 48.9461 56.0539 46.0547 52.5 46.0547C48.9461 46.0547 46.0547 48.9461 46.0547 52.5C46.0547 56.0539 48.9461 58.9453 52.5 58.9453ZM52.5 50.3516C53.6846 50.3516 54.6484 51.3154 54.6484 52.5C54.6484 53.6846 53.6846 54.6484 52.5 54.6484C51.3154 54.6484 50.3516 53.6846 50.3516 52.5C50.3516 51.3154 51.3154 50.3516 52.5 50.3516Z" fill="white"/>
<path d="M77.8516 25H60.6641C59.7394 25 58.9184 25.5918 58.6259 26.4691L56.9234 31.5763C56.5482 32.7019 57.1565 33.9186 58.2822 34.2938C59.4079 34.669 60.6246 34.0607 60.9998 32.935L62.2126 29.2969H77.8516C79.0382 29.2969 80 28.335 80 27.1484C80 25.9619 79.0382 25 77.8516 25Z" fill="white"/>
<path d="M77.8516 33.5938H73.5547C72.3681 33.5938 71.4062 34.5556 71.4062 35.7422C71.4062 36.9288 72.3681 37.8906 73.5547 37.8906H77.8516C79.0381 37.8906 80 36.9288 80 35.7422C80 34.5556 79.0381 33.5938 77.8516 33.5938Z" fill="white"/>
<path d="M27.1484 71.4062H31.4453C32.6319 71.4062 33.5938 70.4444 33.5938 69.2578C33.5938 68.0712 32.6319 67.1094 31.4453 67.1094H27.1484C25.9619 67.1094 25 68.0712 25 69.2578C25 70.4444 25.9619 71.4062 27.1484 71.4062Z" fill="white"/>
<path d="M76.1414 46.5953C76.1414 46.5953 58.5182 38.714 58.5124 38.7115C56.6116 37.8817 54.5887 37.4609 52.5 37.4609C50.4113 37.4609 48.3884 37.8817 46.4876 38.7115C46.4817 38.7141 28.8586 46.5953 28.8586 46.5953C26.5142 47.6233 25 49.9398 25 52.5C25 55.0602 26.5142 57.3767 28.8586 58.4047L45.7854 65.9746L42.7549 75.7031H27.1484C25.9619 75.7031 25 76.665 25 77.8516C25 79.0381 25.9619 80 27.1484 80H44.3359C45.2764 80 46.1074 79.3883 46.3872 78.4905L49.8699 67.3099C50.7317 67.4619 51.6098 67.5391 52.5 67.5391C54.5887 67.5391 56.6116 67.1183 58.5124 66.2885C58.5183 66.2859 76.1414 58.4047 76.1414 58.4047C78.4858 57.3767 80 55.0602 80 52.5C80 49.9398 78.4858 47.6233 76.1414 46.5953ZM52.5 63.2422C46.5767 63.2422 41.7578 58.4232 41.7578 52.5C41.7578 46.5768 46.5767 41.7578 52.5 41.7578C58.4234 41.7578 63.2422 46.5768 63.2422 52.5C63.2422 58.4232 58.4234 63.2422 52.5 63.2422ZM30.5873 54.4709C29.8035 54.1286 29.2969 53.355 29.2969 52.5C29.2969 51.645 29.8035 50.8714 30.5873 50.5291C30.5932 50.5266 38.5073 46.9873 38.5073 46.9873C37.8321 48.6951 37.4609 50.555 37.4609 52.5C37.4609 54.445 37.8321 56.3049 38.5073 58.0127C38.5073 58.0127 30.5931 54.4734 30.5873 54.4709ZM74.4127 54.4709C74.4068 54.4734 66.4927 58.0127 66.4927 58.0127C67.1679 56.3049 67.5391 54.445 67.5391 52.5C67.5391 50.555 67.1679 48.6951 66.4927 46.9873C66.4927 46.9873 74.4068 50.5267 74.4127 50.5291C75.1965 50.8714 75.7031 51.645 75.7031 52.5C75.7031 53.355 75.1965 54.1286 74.4127 54.4709Z" fill="white"/>
</g>
<defs>
<clipPath id="clip0_2001_375">
<rect width="55" height="55" fill="white" transform="translate(25 25)"/>
</clipPath>
</defs>
</svg>
