<svg width="106" height="106" viewBox="0 0 106 106" fill="none" xmlns="http://www.w3.org/2000/svg">
<circle cx="53" cy="53" r="53" fill="#A6AAF5"/>
<path d="M73.3959 33.9469C67.4368 29.3164 60.6074 26 53 26C45.3942 26 38.565 29.3151 32.6041 33.9472C31.8873 34.5041 31.7572 35.5373 32.3137 36.2548C32.6376 36.6725 33.1225 36.8911 33.6128 36.8911C33.9648 36.8911 34.3195 36.7783 34.6191 36.5455C40.9026 31.6629 46.915 29.2893 53 29.2893C59.0851 29.2893 65.0975 31.6627 71.3809 36.5452C72.0977 37.1022 73.1298 36.972 73.6863 36.2546C74.2428 35.5371 74.1127 34.504 73.3959 33.9469Z" fill="white"/>
<path d="M71.201 40.376C66.1572 36.0354 59.7049 32.5788 53 32.5788C46.2951 32.5788 39.8428 36.0354 34.799 40.376C33.7184 41.306 33.0986 42.6603 33.0986 44.0917C33.0986 45.523 33.7184 46.8774 34.799 47.8074C39.8428 52.1479 46.2951 55.6045 53 55.6045C59.7049 55.6045 66.1572 52.1479 71.201 47.8074C72.2816 46.8774 72.9014 45.523 72.9014 44.0917C72.9014 42.6603 72.2817 41.3059 71.201 40.376ZM69.0587 45.3131C66.0201 47.9282 59.8932 52.3151 53 52.3151C46.1069 52.3151 39.98 47.9282 36.9413 45.3131C36.5824 45.0042 36.3848 44.5704 36.3848 44.0917C36.3848 43.6129 36.5825 43.1791 36.9413 42.8702C39.9799 40.2552 46.1068 35.8682 53 35.8682C59.8932 35.8682 66.0201 40.2552 69.0587 42.8702C69.4176 43.1791 69.6152 43.6129 69.6152 44.0917C69.6152 44.5704 69.4176 45.0042 69.0587 45.3131Z" fill="white"/>
<path d="M53 39.1576C50.282 39.1576 48.0707 41.371 48.0707 44.0917C48.0707 46.8123 50.282 49.0258 53 49.0258C55.718 49.0258 57.9293 46.8123 57.9293 44.0917C57.9293 41.371 55.718 39.1576 53 39.1576ZM53 45.7364C52.094 45.7364 51.3569 44.9986 51.3569 44.0917C51.3569 43.1848 52.094 42.447 53 42.447C53.906 42.447 54.6431 43.1848 54.6431 44.0917C54.6431 44.9986 53.906 45.7364 53 45.7364Z" fill="white"/>
<path d="M55.5487 70.2389C57.5926 66.2223 59.5102 64.4147 64.3278 63.2839C67.5967 62.3821 71.302 61.3599 74.7304 56.8472C75.2502 56.163 75.856 55.623 76.5307 55.2422C77.8501 54.4975 79.3912 54.3969 80.7589 54.9661C81.6969 55.3566 82.4639 55.9873 82.9864 56.7848C84.0621 54.8879 84.9088 53.0037 85.6012 51.4626C85.8588 50.8892 86.2063 50.3905 86.6176 49.9786C87.7915 48.8034 89.5184 48.3445 91.1519 48.86C93.492 49.5984 94.8159 52.1092 94.1039 54.4569C91.2166 65.579 82.1671 75.4546 69.41 78.8776C67.6369 79.4039 66.9898 80.2646 66.9142 80.3726C65.6796 82.2208 63.0081 80.5065 64.1453 78.6193C64.4112 78.2042 65.602 76.5872 68.4785 75.7335C79.5061 72.7733 88.1035 64.4318 90.9689 53.5041C91.1617 52.8684 90.7721 52.1787 90.1373 51.9784C89.4298 51.7551 88.8391 52.2519 88.5891 52.8079C87.0924 56.139 84.7977 61.2459 80.378 65.6858C79.0805 67.0054 77.6307 68.1502 76.1854 68.9949C75.4041 69.4515 74.401 69.1876 73.9448 68.4056C73.4886 67.6235 73.752 66.6194 74.5335 66.1628C75.7138 65.4731 76.9626 64.4781 78.0467 63.3816L78.0497 63.3786C79.0818 62.3273 79.8113 61.3501 80.2179 60.474C80.4968 59.8731 80.5521 59.2892 80.3737 58.8302C80.2283 58.456 79.9347 58.1748 79.5009 57.9942C78.9416 57.7615 78.452 57.9226 78.1397 58.0989C77.8599 58.2567 77.5829 58.5105 77.338 58.8325C73.2393 64.2273 68.5916 65.5093 65.1981 66.4455C63.2772 66.9754 61.76 67.3939 60.8224 68.3324C59.6034 69.5527 59.0777 70.5596 58.4514 71.7594C58.0321 72.5619 57.0421 72.8719 56.2405 72.452C55.439 72.0322 55.1292 71.0413 55.5487 70.2389Z" fill="white"/>
<path d="M50.4513 70.2389C48.4074 66.2223 46.4898 64.4147 41.6722 63.2839C38.4033 62.3821 34.698 61.3599 31.2696 56.8472C30.7498 56.163 30.144 55.623 29.4693 55.2422C28.1499 54.4975 26.6088 54.3969 25.2411 54.9661C24.3031 55.3566 23.5361 55.9873 23.0136 56.7848C21.9379 54.8879 21.0912 53.0037 20.3988 51.4626C20.1412 50.8892 19.7937 50.3905 19.3824 49.9786C18.2085 48.8034 16.4817 48.3445 14.8481 48.86C12.508 49.5984 11.1841 52.1092 11.8962 54.4569C14.7834 65.579 23.8329 75.4546 36.59 78.8776C38.3631 79.4039 39.0102 80.2646 39.0858 80.3726C40.3204 82.2208 42.9919 80.5065 41.8547 78.6193C41.5888 78.2042 40.398 76.5872 37.5215 75.7335C26.4939 72.7733 17.8965 64.4318 15.0311 53.5041C14.8383 52.8684 15.2279 52.1787 15.8627 51.9784C16.5702 51.7551 17.1609 52.2519 17.4109 52.8079C18.9076 56.139 21.2023 61.2459 25.622 65.6858C26.9196 67.0054 28.3693 68.1502 29.8147 68.9949C30.5959 69.4515 31.599 69.1876 32.0552 68.4056C32.5114 67.6235 32.248 66.6194 31.4665 66.1628C30.2862 65.4731 29.0374 64.4781 27.9534 63.3816L27.9503 63.3786C26.9182 62.3273 26.1887 61.3501 25.7821 60.474C25.5032 59.8731 25.4479 59.2892 25.6263 58.8302C25.7717 58.456 26.0653 58.1748 26.4991 57.9942C27.0584 57.7615 27.548 57.9226 27.8603 58.0989C28.1401 58.2567 28.4171 58.5105 28.662 58.8325C32.7607 64.2273 37.4084 65.5093 40.8019 66.4455C42.7228 66.9754 44.24 67.3939 45.1776 68.3324C46.3966 69.5527 46.9223 70.5596 47.5486 71.7594C47.9679 72.5619 48.958 72.8719 49.7595 72.452C50.561 72.0322 50.8708 71.0413 50.4513 70.2389Z" fill="white"/>
<path d="M73.3959 33.9469C67.4368 29.3164 60.6074 26 53 26C45.3942 26 38.565 29.3151 32.6041 33.9472C31.8873 34.5041 31.7572 35.5373 32.3137 36.2548C32.6376 36.6725 33.1225 36.8911 33.6128 36.8911C33.9648 36.8911 34.3195 36.7783 34.6191 36.5455C40.9026 31.6629 46.915 29.2893 53 29.2893C59.0851 29.2893 65.0975 31.6627 71.3809 36.5452C72.0977 37.1022 73.1298 36.972 73.6863 36.2546C74.2428 35.5371 74.1127 34.504 73.3959 33.9469Z" stroke="white"/>
<path d="M71.201 40.376C66.1572 36.0354 59.7049 32.5788 53 32.5788C46.2951 32.5788 39.8428 36.0354 34.799 40.376C33.7184 41.306 33.0986 42.6603 33.0986 44.0917C33.0986 45.523 33.7184 46.8774 34.799 47.8074C39.8428 52.1479 46.2951 55.6045 53 55.6045C59.7049 55.6045 66.1572 52.1479 71.201 47.8074C72.2816 46.8774 72.9014 45.523 72.9014 44.0917C72.9014 42.6603 72.2817 41.3059 71.201 40.376ZM69.0587 45.3131C66.0201 47.9282 59.8932 52.3151 53 52.3151C46.1069 52.3151 39.98 47.9282 36.9413 45.3131C36.5824 45.0042 36.3848 44.5704 36.3848 44.0917C36.3848 43.6129 36.5825 43.1791 36.9413 42.8702C39.9799 40.2552 46.1068 35.8682 53 35.8682C59.8932 35.8682 66.0201 40.2552 69.0587 42.8702C69.4176 43.1791 69.6152 43.6129 69.6152 44.0917C69.6152 44.5704 69.4176 45.0042 69.0587 45.3131Z" stroke="white"/>
<path d="M53 39.1576C50.282 39.1576 48.0707 41.371 48.0707 44.0917C48.0707 46.8123 50.282 49.0258 53 49.0258C55.718 49.0258 57.9293 46.8123 57.9293 44.0917C57.9293 41.371 55.718 39.1576 53 39.1576ZM53 45.7364C52.094 45.7364 51.3569 44.9986 51.3569 44.0917C51.3569 43.1848 52.094 42.447 53 42.447C53.906 42.447 54.6431 43.1848 54.6431 44.0917C54.6431 44.9986 53.906 45.7364 53 45.7364Z" stroke="white"/>
<path d="M55.5487 70.2389C57.5926 66.2223 59.5102 64.4147 64.3278 63.2839C67.5967 62.3821 71.302 61.3599 74.7304 56.8472C75.2502 56.163 75.856 55.623 76.5307 55.2422C77.8501 54.4975 79.3912 54.3969 80.7589 54.9661C81.6969 55.3566 82.4639 55.9873 82.9864 56.7848C84.0621 54.8879 84.9088 53.0037 85.6012 51.4626C85.8588 50.8892 86.2063 50.3905 86.6176 49.9786C87.7915 48.8034 89.5184 48.3445 91.1519 48.86C93.492 49.5984 94.8159 52.1092 94.1039 54.4569C91.2166 65.579 82.1671 75.4546 69.41 78.8776C67.6369 79.4039 66.9898 80.2646 66.9142 80.3726C65.6796 82.2208 63.0081 80.5065 64.1453 78.6193C64.4112 78.2042 65.602 76.5872 68.4785 75.7335C79.5061 72.7733 88.1035 64.4318 90.9689 53.5041C91.1617 52.8684 90.7721 52.1787 90.1373 51.9784C89.4298 51.7551 88.8391 52.2519 88.5891 52.8079C87.0924 56.139 84.7977 61.2459 80.378 65.6858C79.0805 67.0054 77.6307 68.1502 76.1854 68.9949C75.4041 69.4515 74.401 69.1876 73.9448 68.4056C73.4886 67.6235 73.752 66.6194 74.5335 66.1628C75.7138 65.4731 76.9626 64.4781 78.0467 63.3816L78.0497 63.3786C79.0818 62.3273 79.8113 61.3501 80.2179 60.474C80.4968 59.8731 80.5521 59.2892 80.3737 58.8302C80.2283 58.456 79.9347 58.1748 79.5009 57.9942C78.9416 57.7615 78.452 57.9226 78.1397 58.0989C77.8599 58.2567 77.5829 58.5105 77.338 58.8325C73.2393 64.2273 68.5916 65.5093 65.1981 66.4455C63.2772 66.9754 61.76 67.3939 60.8224 68.3324C59.6034 69.5527 59.0777 70.5596 58.4514 71.7594C58.0321 72.5619 57.0421 72.8719 56.2405 72.452C55.439 72.0322 55.1292 71.0413 55.5487 70.2389Z" stroke="white"/>
<path d="M50.4513 70.2389C48.4074 66.2223 46.4898 64.4147 41.6722 63.2839C38.4033 62.3821 34.698 61.3599 31.2696 56.8472C30.7498 56.163 30.144 55.623 29.4693 55.2422C28.1499 54.4975 26.6088 54.3969 25.2411 54.9661C24.3031 55.3566 23.5361 55.9873 23.0136 56.7848C21.9379 54.8879 21.0912 53.0037 20.3988 51.4626C20.1412 50.8892 19.7937 50.3905 19.3824 49.9786C18.2085 48.8034 16.4817 48.3445 14.8481 48.86C12.508 49.5984 11.1841 52.1092 11.8962 54.4569C14.7834 65.579 23.8329 75.4546 36.59 78.8776C38.3631 79.4039 39.0102 80.2646 39.0858 80.3726C40.3204 82.2208 42.9919 80.5065 41.8547 78.6193C41.5888 78.2042 40.398 76.5872 37.5215 75.7335C26.4939 72.7733 17.8965 64.4318 15.0311 53.5041C14.8383 52.8684 15.2279 52.1787 15.8627 51.9784C16.5702 51.7551 17.1609 52.2519 17.4109 52.8079C18.9076 56.139 21.2023 61.2459 25.622 65.6858C26.9196 67.0054 28.3693 68.1502 29.8147 68.9949C30.5959 69.4515 31.599 69.1876 32.0552 68.4056C32.5114 67.6235 32.248 66.6194 31.4665 66.1628C30.2862 65.4731 29.0374 64.4781 27.9534 63.3816L27.9503 63.3786C26.9182 62.3273 26.1887 61.3501 25.7821 60.474C25.5032 59.8731 25.4479 59.2892 25.6263 58.8302C25.7717 58.456 26.0653 58.1748 26.4991 57.9942C27.0584 57.7615 27.548 57.9226 27.8603 58.0989C28.1401 58.2567 28.4171 58.5105 28.662 58.8325C32.7607 64.2273 37.4084 65.5093 40.8019 66.4455C42.7228 66.9754 44.24 67.3939 45.1776 68.3324C46.3966 69.5527 46.9223 70.5596 47.5486 71.7594C47.9679 72.5619 48.958 72.8719 49.7595 72.452C50.561 72.0322 50.8708 71.0413 50.4513 70.2389Z" stroke="white"/>
</svg>
