<svg width="106" height="106" viewBox="0 0 106 106" fill="none" xmlns="http://www.w3.org/2000/svg">
<circle cx="53" cy="53" r="53" fill="#87C0F2"/>
<g clip-path="url(#clip0_2001_185)">
<path d="M38.5376 61.8793C38.4039 61.8793 38.2684 61.8668 38.1323 61.8409C36.9668 61.6183 36.2024 60.4931 36.4249 59.3276L37.2698 54.8973C37.3998 54.1469 37.1467 53.3787 36.5923 52.844L32.188 48.6096C28.2056 44.8327 30.4566 38.0143 35.8805 37.2889L41.9658 36.4158C42.7422 36.3041 43.4123 35.8242 43.7575 35.1319L46.4712 29.6885C47.6054 27.4133 49.8989 25.9998 52.4545 26C55.0107 26 57.3033 27.4133 58.4374 29.6884L61.1512 35.1318C61.4964 35.8241 62.1664 36.3041 62.9438 36.4158L69.012 37.2887C74.4366 38.0138 76.6851 44.8334 72.7073 48.6067L68.3163 52.8438C67.7649 53.3758 67.5115 54.1387 67.6371 54.8867L68.4692 59.3355C68.6873 60.5018 67.9187 61.6242 66.7524 61.8423C65.5857 62.0602 64.4638 61.2916 64.2456 60.1255L63.4105 55.6603C63.4087 55.6509 63.4071 55.6415 63.4055 55.6321C63.0317 53.4751 63.7522 51.2769 65.3326 49.7517L69.7237 45.5147C70.3751 44.8861 70.5994 44.001 70.3237 43.1469C70.042 42.2745 69.323 41.6745 68.4003 41.5418L62.332 40.6689C60.1591 40.3564 58.2802 39.0031 57.306 37.0489L54.592 31.6055C54.1834 30.7862 53.3844 30.2969 52.4543 30.2969C51.5244 30.2969 50.7252 30.7862 50.3167 31.6057L47.603 37.0491C46.6286 39.0032 44.7496 40.3565 42.5768 40.6691L36.4916 41.5421C35.5697 41.6747 34.8507 42.2747 34.569 43.1471C34.2933 44.0011 34.5176 44.8863 35.169 45.5149L39.5733 49.7493C41.1566 51.277 41.8771 53.4752 41.5034 55.6321L40.6457 60.1336C40.449 61.1627 39.5483 61.8792 38.5376 61.8793ZM58.5988 69.8156C59.7737 69.6511 60.5929 68.5651 60.4285 67.39C60.2641 66.2149 59.1791 65.3955 58.0029 65.5603C56.1036 65.8262 54.3098 65.9609 52.6714 65.9609H52.6509C51.0125 65.9609 49.2188 65.8261 47.3195 65.5603C44.4805 65.2772 43.9185 69.3094 46.7236 69.8156C48.8197 70.109 50.8139 70.2578 52.6509 70.2578H52.6714C54.5085 70.2578 56.5026 70.1091 58.5988 69.8156ZM62.1221 79.8728C65.5722 79.143 68.0762 76.0499 68.0762 72.5181V69.6133C68.0762 68.3101 69.1363 67.25 70.4395 67.25H74.8953L73.2653 69.0152C72.5053 69.8382 72.5053 71.1072 73.2653 71.9303L74.8954 73.6953H73.4473C70.5967 73.8088 70.5989 77.8797 73.4473 77.9922H76.3265C77.7916 77.9922 79.114 77.1233 79.6955 75.7785C80.2752 74.4379 80.006 72.8845 79.0098 71.8174L77.7682 70.4727L79.0099 69.1279C80.0059 68.0608 80.2753 66.5074 79.6956 65.1668C79.114 63.8221 77.7916 62.9531 76.3265 62.9531H70.4395C66.767 62.9531 63.7793 65.9408 63.7793 69.6133V72.518C63.7793 74.0317 62.7084 75.3568 61.2331 75.6689C55.4315 77.0041 49.561 77.0023 43.767 75.6689C42.2916 75.3568 41.2207 74.0317 41.2207 72.5181V69.6133C41.2207 65.9408 38.233 62.9531 34.5605 62.9531H28.6736C27.2085 62.9531 25.8861 63.8221 25.3046 65.1668C24.7249 66.5074 24.9942 68.0608 25.9903 69.1279L27.2319 70.4727L25.9902 71.8174C24.9941 72.8845 24.7248 74.4379 25.3045 75.7785C25.886 77.1234 27.2085 77.9922 28.6736 77.9922H31.5527C34.4033 77.8787 34.4011 73.8078 31.5527 73.6953H30.1047L31.7347 71.9302C32.4947 71.1071 32.4947 69.8381 31.7347 69.015L30.1047 67.25H34.5605C35.8637 67.25 36.9238 68.3101 36.9238 69.6133V72.518C36.9238 76.0499 39.4279 79.143 42.878 79.8728C46.4148 80.6208 49.6521 81 52.5 81C55.3479 81 58.5853 80.6208 62.1221 79.8728Z" fill="white"/>
</g>
<defs>
<clipPath id="clip0_2001_185">
<rect width="55" height="55" fill="white" transform="translate(25 26)"/>
</clipPath>
</defs>
</svg>
