<svg width="106" height="106" viewBox="0 0 106 106" fill="none" xmlns="http://www.w3.org/2000/svg">
<circle cx="53" cy="53" r="53" fill="#99D27A"/>
<path d="M67.1094 55.6484C61.9217 55.6484 57.5813 59.3449 56.5832 64.2422H48.4169C47.4189 59.3449 43.0785 55.6484 37.8907 55.6484C31.9674 55.6484 27.1486 60.4674 27.1486 66.3906C27.1486 72.3139 31.9674 77.1328 37.8907 77.1328C43.0785 77.1328 47.4189 73.4363 48.4169 68.5391H56.5832C57.5813 73.4363 61.9217 77.1328 67.1094 77.1328C73.0327 77.1328 77.8516 72.3139 77.8516 66.3906C77.8516 60.4674 73.0327 55.6484 67.1094 55.6484ZM37.8906 72.8359C34.3367 72.8359 31.4453 69.9446 31.4453 66.3906C31.4453 62.8367 34.3367 59.9453 37.8906 59.9453C41.4446 59.9453 44.336 62.8367 44.336 66.3906C44.336 69.9446 41.4446 72.8359 37.8906 72.8359ZM67.1094 72.8359C63.5554 72.8359 60.6641 69.9446 60.6641 66.3906C60.6641 62.8367 63.5554 59.9453 67.1094 59.9453C70.6633 59.9453 73.5547 62.8367 73.5547 66.3906C73.5547 69.9446 70.6633 72.8359 67.1094 72.8359Z" fill="white"/>
<path d="M29.2969 52.9829V40.6094C29.2969 37.0554 32.1882 34.1641 35.7422 34.1641C36.9288 34.1641 37.8906 33.2022 37.8906 32.0156C37.8906 30.829 36.9288 29.8672 35.7422 29.8672C29.8188 29.8672 25 34.6861 25 40.6094V52.9829C25 54.1695 25.9619 55.1313 27.1484 55.1313C28.335 55.1313 29.2969 54.1693 29.2969 52.9829Z" fill="white"/>
<path d="M69.2578 29.8672C68.0712 29.8672 67.1094 30.829 67.1094 32.0156C67.1094 33.2022 68.0712 34.1641 69.2578 34.1641C72.8118 34.1641 75.7031 37.0554 75.7031 40.6094V52.9829C75.7031 54.1695 76.665 55.1313 77.8516 55.1313C79.0381 55.1313 80 54.1695 80 52.9829V40.6094C80 34.6861 75.1812 29.8672 69.2578 29.8672Z" fill="white"/>
</svg>
