<svg width="115" height="95" viewBox="0 0 115 95" fill="none" xmlns="http://www.w3.org/2000/svg">
<g clip-path="url(#clip0_2001_28)">
<path fill-rule="evenodd" clip-rule="evenodd" d="M15.5853 24.7281C11.3239 24.1108 7.06217 23.7521 2.80086 23.6522C-1.14816 23.8572 -0.703965 28.0282 2.77305 27.3834C6.98176 26.9366 10.674 26.6867 14.751 27.1655L15.5853 24.7281Z" fill="#1592D1"/>
<path fill-rule="evenodd" clip-rule="evenodd" d="M99.4148 24.7281C103.676 24.1108 107.938 23.7521 112.199 23.6522C116.148 23.8572 115.704 28.0282 112.227 27.3834C108.018 26.9366 104.326 26.6867 100.249 27.1655L99.4148 24.7281Z" fill="#1592D1"/>
<path fill-rule="evenodd" clip-rule="evenodd" d="M83.6258 10.4501C95.913 10.4501 105.874 19.7483 105.874 31.2184C105.874 31.847 105.842 32.4683 105.784 33.0823C108.001 31.9688 111.135 32.1756 112.492 34.2707C113.126 35.2503 113.423 36.8369 112.981 37.9297C111.468 41.6702 106.139 40.26 104.525 38.3564C101.407 46.3103 93.2266 51.9869 83.6259 51.9869C72.0912 51.9869 62.6072 43.7928 61.4888 33.3002C58.9449 34.4236 56.4005 34.3456 53.8566 33.2362C52.7698 43.7595 43.2714 51.9869 31.7136 51.9869C21.9198 51.9869 13.6046 46.0803 10.6327 37.8748C9.61034 39.9902 3.4937 41.9808 1.8555 37.9298C1.41341 36.837 1.71044 35.2504 2.34495 34.2708C3.81484 32.0014 7.36906 31.9477 9.58581 33.387C9.50667 32.6744 9.4657 31.951 9.4657 31.2188C9.4657 19.7485 19.4262 10.4502 31.7137 10.4502C43.4259 10.4502 53.0241 18.8985 53.8967 29.6235C56.4127 28.4674 58.9291 28.5194 61.4446 29.6028C62.3278 18.8879 71.9212 10.4502 83.6259 10.4502L83.6258 10.4501Z" fill="#EE761C"/>
<path fill-rule="evenodd" clip-rule="evenodd" d="M83.6258 17.378C90.9659 17.378 96.9159 22.9323 96.9159 29.7844C96.9159 36.6362 90.9659 42.1907 83.6258 42.1907C76.2856 42.1907 70.3355 36.6362 70.3355 29.7844C70.3355 22.9323 76.2856 17.378 83.6258 17.378Z" fill="#FEFEFE"/>
<path fill-rule="evenodd" clip-rule="evenodd" d="M83.6257 20.7209C89.8366 20.7209 94.8713 25.4209 94.8713 31.2187C94.8713 37.0164 89.8366 41.7163 83.6257 41.7163C77.415 41.7163 72.3803 37.0164 72.3803 31.2187C72.3803 25.4209 77.415 20.7209 83.6257 20.7209Z" fill="#1592D1"/>
<path fill-rule="evenodd" clip-rule="evenodd" d="M83.6257 24.7626C87.4453 24.7626 90.5415 27.653 90.5415 31.2187C90.5415 34.7841 87.4453 37.6743 83.6257 37.6743C79.8063 37.6743 76.7101 34.7841 76.7101 31.2187C76.7101 27.6531 79.8063 24.7626 83.6257 24.7626Z" fill="#2B2A29" stroke="#2B2A29" stroke-width="0.756018" stroke-miterlimit="22.9256"/>
<path fill-rule="evenodd" clip-rule="evenodd" d="M87.06 24.7209C88.7391 24.7209 90.1001 25.9914 90.1001 27.5587C90.1001 29.126 88.7391 30.3965 87.06 30.3965C85.3811 30.3965 84.0199 29.126 84.0199 27.5587C84.0199 25.9914 85.381 24.7209 87.06 24.7209Z" fill="#FEFEFE"/>
<path fill-rule="evenodd" clip-rule="evenodd" d="M26.2656 11.981C24.8854 11.6457 23.3943 9.91706 22.9109 8.57259C22.6671 7.89526 22.3406 2.71164 23.9055 5.75429C24.5339 6.97681 25.8954 8.46485 26.8303 8.69565C28.1335 9.01801 27.6558 7.06176 27.8486 5.95105C28.0628 4.71896 28.331 -0.764831 29.6593 0.0901004C30.6081 0.700765 31.9173 3.6738 31.8174 5.69704C31.786 6.33481 31.345 9.19172 32.1826 9.03486C33.1996 8.84412 34.9912 4.87963 35.15 3.96702C35.2367 3.46714 36.0109 0.766151 36.8923 1.37419C37.9346 2.09344 37.8604 6.24232 37.4881 7.34711C36.5733 10.0594 34.246 11.8651 32.7972 12.1426C30.4501 12.5918 28.5123 12.5268 26.2657 11.981H26.2656Z" fill="#434242"/>
<path fill-rule="evenodd" clip-rule="evenodd" d="M78.4565 11.981C77.0762 11.6457 75.5851 9.91706 75.1017 8.57259C74.858 7.89526 74.5314 2.71164 76.0964 5.75429C76.7248 6.97681 78.0862 8.46485 79.0212 8.69565C80.3244 9.01801 79.8467 7.06176 80.0395 5.95105C80.2537 4.71896 80.5219 -0.764831 81.8502 0.0901004C82.7989 0.700765 84.1082 3.6738 84.0082 5.69704C83.9768 6.33481 83.5358 9.19172 84.3735 9.03486C85.3903 8.84412 87.182 4.87963 87.3408 3.96702C87.4276 3.46714 88.2018 0.766151 89.0831 1.37419C90.1255 2.09344 90.0512 6.24232 89.679 7.34711C88.7642 10.0594 86.4368 11.8651 84.9881 12.1426C82.641 12.5918 80.7031 12.5268 78.4566 11.981H78.4565Z" fill="#434242"/>
<path fill-rule="evenodd" clip-rule="evenodd" d="M75.5014 43.5153C79.0755 44.3154 83.5428 44.7873 83.9272 45.5315C84.1854 46.0316 83.5992 48.9008 82.5612 48.9642C81.133 49.0509 80.5801 48.1786 79.2745 46.4549C77.8714 44.6019 74.4692 43.2844 75.5014 43.5153V43.5153Z" fill="#434242"/>
<path fill-rule="evenodd" clip-rule="evenodd" d="M77.5158 77.1996H77.5531C78.801 77.1996 79.8457 77.0712 80.687 76.8149C81.5283 76.5581 82.2091 76.1925 82.7291 75.7175C83.2491 75.2426 83.6177 74.682 83.8351 74.0361C84.0527 73.3899 84.1615 72.687 84.1615 71.9269C84.1615 71.167 83.9439 70.4261 83.509 69.7041C83.0743 68.9819 82.3935 68.4406 81.4671 68.0794V67.994C82.1667 67.6898 82.7196 67.2814 83.1261 66.7686C83.5328 66.2556 83.7361 65.5238 83.7361 64.574C83.7361 63.0731 83.2397 61.9235 82.247 61.1254C81.2544 60.3275 79.7655 59.9283 77.7801 59.9283C77.0804 59.9283 76.414 59.9853 75.7804 60.0992C75.1472 60.2134 74.5891 60.3796 74.1073 60.5982C73.625 60.8165 73.2421 61.0732 72.9583 61.3678C72.6748 61.662 72.533 61.9805 72.533 62.3226C72.533 62.9115 72.6748 63.301 72.9583 63.491C73.2421 63.6809 73.6298 63.776 74.1213 63.776C74.4425 63.776 74.7357 63.7428 75.0006 63.6762C75.265 63.6095 75.5297 63.5337 75.7945 63.4482C76.0593 63.3627 76.3381 63.2865 76.6312 63.2203C76.9244 63.1537 77.2695 63.1204 77.6664 63.1204C79.198 63.1204 79.9636 63.7284 79.9636 64.9443C79.9636 65.4956 79.751 65.8991 79.3256 66.1558C78.9002 66.4121 78.3945 66.5405 77.8081 66.5405H76.7873C76.0687 66.5405 75.4872 66.6876 75.043 66.982C74.5985 67.2767 74.3765 67.6709 74.3765 68.1648C74.3765 68.6969 74.5984 69.0959 75.043 69.362C75.4872 69.6278 76.0687 69.761 76.7873 69.761H77.8081C78.5646 69.761 79.1509 69.9649 79.5668 70.3738C79.9826 70.7821 80.1909 71.2618 80.1909 71.8128C80.1909 72.421 79.9779 72.9005 79.5525 73.2522C79.1271 73.6037 78.4891 73.7794 77.6381 73.7794C76.9197 73.7794 76.3854 73.7318 76.0357 73.6369C75.6858 73.5419 75.3927 73.4421 75.1564 73.3375C74.92 73.2329 74.6932 73.1334 74.4758 73.0385C74.2581 72.9434 73.9226 72.8959 73.4688 72.8959C73.0152 72.8959 72.637 73.0099 72.3343 73.2377C72.0321 73.466 71.8807 73.8363 71.8807 74.3493C71.8807 74.8431 72.0273 75.2706 72.3201 75.6319C72.6132 75.9928 73.0152 76.2873 73.5257 76.5153C74.0362 76.7433 74.6363 76.9143 75.3267 77.0282C76.0061 77.1406 76.7357 77.1976 77.5159 77.1994L77.5158 77.1996ZM11.1565 66.7398V74.4921C11.1565 76.2971 11.7901 77.1996 13.0569 77.1996C14.3238 77.1996 14.9574 76.2971 14.9574 74.4921V62.5218C14.9574 61.686 14.8202 61.0445 14.5458 60.5983C14.2718 60.1516 13.823 59.9284 13.1989 59.9284C12.764 59.9284 12.3951 60.0379 12.0925 60.256C11.7903 60.4746 11.4876 60.7834 11.1852 61.1825L4.12286 70.559V62.6642C4.12286 60.8404 3.48961 59.9283 2.22252 59.9283C0.955599 59.9283 0.322433 60.8404 0.322433 62.6642V74.9195C0.322433 75.6982 0.454764 76.2732 0.719258 76.644C0.984172 77.0144 1.41884 77.1996 2.02428 77.1996C2.44015 77.1996 2.82298 77.1093 3.17269 76.929C3.52256 76.7482 3.87699 76.4109 4.23648 75.9172L11.1567 66.7398L11.1565 66.7398ZM22.7852 74.4921V70.1885H29.8191V74.4921C29.8191 76.2971 30.4523 77.1996 31.7191 77.1996C32.9862 77.1996 33.6195 76.2971 33.6195 74.4921V62.6643C33.6195 60.8404 32.9862 59.9284 31.7191 59.9284C30.4522 59.9284 29.8191 60.8404 29.8191 62.6643V66.626H22.7852V62.6643C22.7852 60.8404 22.1517 59.9284 20.8848 59.9284C19.618 59.9284 18.9845 60.8404 18.9845 62.6643V74.4921C18.9845 76.2971 19.618 77.1996 20.8848 77.1996C22.1517 77.1996 22.7852 76.2971 22.7852 74.4921ZM39.4623 76.9999H43.2346C45.1821 76.9999 46.6662 76.5394 47.6874 75.6177C48.7084 74.6964 49.2189 73.4661 49.2189 71.9269C49.2189 70.882 49.0014 70.0697 48.5666 69.49C48.1316 68.9109 47.4225 68.4594 46.4394 68.1366V68.0794C47.2334 67.6806 47.7628 67.1675 48.0275 66.5406C48.2924 65.9135 48.4246 65.1818 48.4246 64.346C48.4246 63.0731 47.8904 62.0564 46.8222 61.2965C45.7541 60.5364 44.3595 60.1564 42.639 60.1564H39.5192C38.4411 60.1564 37.7324 60.3703 37.3919 60.7978C37.0515 61.2254 36.8814 61.9044 36.8814 62.8356V74.5775C36.8814 75.4895 37.0563 76.1213 37.4059 76.4726C37.7558 76.8242 38.4411 76.9999 39.4623 76.9999ZM40.6818 73.694V69.7323H42.5254C43.5464 69.7323 44.246 69.8891 44.6242 70.2025C45.0023 70.5162 45.1914 71.0528 45.1914 71.8128C45.1914 72.421 45.0023 72.8866 44.6242 73.2095C44.246 73.5324 43.5654 73.694 42.5823 73.694H40.6818ZM40.6818 66.7398V63.434H42.3269C43.8204 63.434 44.5677 63.9754 44.5677 65.0584C44.5677 65.6665 44.4067 66.0988 44.0854 66.3551C43.764 66.6118 43.1777 66.7398 42.3269 66.7398H40.6818ZM64.1093 66.7398V74.4921C64.1093 76.2971 64.7427 77.1996 66.0096 77.1996C67.2765 77.1996 67.9096 76.2971 67.9096 74.4921V62.5218C67.9096 61.686 67.7725 61.0445 67.4984 60.5983C67.2244 60.1516 66.7751 59.9284 66.1514 59.9284C65.7166 59.9284 65.3479 60.0379 65.0452 60.256C64.7428 60.4746 64.4401 60.7834 64.1375 61.1825L57.0754 70.559V62.6642C57.0754 60.8404 56.4418 59.9283 55.175 59.9283C53.9083 59.9283 53.2751 60.8404 53.2751 62.6642V74.9195C53.2751 75.6982 53.4073 76.2732 53.6719 76.644C53.9368 77.0144 54.3715 77.1996 54.9765 77.1996C55.3927 77.1996 55.7757 77.1093 56.1253 76.929C56.4752 76.7482 56.8296 76.4109 57.1891 75.9172L64.1094 66.7398L64.1093 66.7398ZM95.5631 60.1564H91.2803C90.2025 60.1564 89.4934 60.3702 89.1534 60.7977C88.8128 61.2253 88.6425 61.9043 88.6425 62.8355V74.5774C88.6425 75.4894 88.8176 76.1212 89.1674 76.4725C89.5172 76.8241 90.2025 76.9999 91.2237 76.9999H95.6764C97.4917 76.9999 98.3993 76.4107 98.3993 75.2327C98.3993 74.0359 97.4917 73.4373 95.6764 73.4373H92.4433V70.2738H95.1378C96.9341 70.2738 97.8322 69.6847 97.8322 68.5067C97.8322 67.3287 96.9341 66.7396 95.1378 66.7396H92.4433V63.7187H95.5631C97.378 63.7187 98.2858 63.1296 98.2858 61.9516C98.2858 60.7549 97.3781 60.1562 95.5631 60.1562V60.1564ZM107.901 68.108H106.255V63.6905H107.901C109.659 63.6905 110.538 64.4217 110.538 65.8847C110.538 67.3668 109.659 68.108 107.901 68.108ZM106.255 74.492V71.5848H108.836C110.69 71.5848 112.126 71.0767 113.148 70.06C114.169 69.0438 114.679 67.6518 114.679 65.8847C114.679 64.1369 114.136 62.7453 113.048 61.7095C111.961 60.6741 110.453 60.1564 108.524 60.1564H105.092C104.015 60.1564 103.306 60.3702 102.966 60.7977C102.625 61.2253 102.455 61.9043 102.455 62.8355V74.4921C102.455 76.2971 103.088 77.1996 104.355 77.1996C105.622 77.1996 106.255 76.2971 106.255 74.4921V74.492Z" fill="url(#paint0_linear_2001_28)"/>
<path fill-rule="evenodd" clip-rule="evenodd" d="M1.41471 83.2332H113.585C114.033 83.2332 114.399 82.8655 114.399 82.4157V82.4156C114.399 81.966 114.033 81.5981 113.585 81.5981H1.41471C0.967229 81.5981 0.60117 81.966 0.60117 82.4156V82.4157C0.60117 82.8655 0.967229 83.2332 1.41471 83.2332Z" fill="#EE761C"/>
<path fill-rule="evenodd" clip-rule="evenodd" d="M43.8534 24.7281C53.1107 23.3868 62.4079 23.271 71.6649 24.3693C71.264 25.1278 70.9664 25.9364 70.7324 26.763C62.0778 25.6379 53.3679 25.7526 44.7135 27.1585C44.4271 27.205 44.9784 27.0276 44.6916 27.0771C44.4397 26.1104 44.1256 25.3626 43.8534 24.7281Z" fill="#1592D1"/>
<path fill-rule="evenodd" clip-rule="evenodd" d="M31.7133 17.378C39.0534 17.378 45.0036 22.9323 45.0036 29.7844C45.0036 36.6362 39.0534 42.1907 31.7133 42.1907C24.3733 42.1907 18.4231 36.6362 18.4231 29.7844C18.4231 22.9323 24.3733 17.378 31.7133 17.378Z" fill="#FEFEFE"/>
<path fill-rule="evenodd" clip-rule="evenodd" d="M31.7133 20.7209C37.9242 20.7209 42.9588 25.4209 42.9588 31.2187C42.9588 37.0164 37.9242 41.7163 31.7133 41.7163C25.5026 41.7163 20.4679 37.0164 20.4679 31.2187C20.4679 25.4209 25.5026 20.7209 31.7133 20.7209Z" fill="#1592D1"/>
<path fill-rule="evenodd" clip-rule="evenodd" d="M31.7133 24.7626C35.5329 24.7626 38.6291 27.653 38.6291 31.2187C38.6291 34.7841 35.5329 37.6743 31.7133 37.6743C27.8938 37.6743 24.7976 34.7841 24.7976 31.2187C24.7976 27.6531 27.8938 24.7626 31.7133 24.7626Z" fill="#2B2A29" stroke="#2B2A29" stroke-width="0.756018" stroke-miterlimit="22.9256"/>
<path fill-rule="evenodd" clip-rule="evenodd" d="M35.1477 24.7209C36.8268 24.7209 38.1877 25.9914 38.1877 27.5587C38.1877 29.126 36.8268 30.3965 35.1477 30.3965C33.4686 30.3965 32.1077 29.126 32.1077 27.5587C32.1077 25.9914 33.4686 24.7209 35.1477 24.7209Z" fill="#FEFEFE"/>
<path fill-rule="evenodd" clip-rule="evenodd" d="M20.6575 42.1937C22.2307 41.8676 24.9526 45.9396 31.202 45.8714C34.5978 45.8343 35.3409 45.8076 38.5425 44.8702C40.2253 44.3775 41.8692 43.2977 43.7975 42.1641C44.9333 41.4958 44.2741 41.2125 44.5397 40.878C45.4047 39.7888 46.9786 42.5764 46.6967 42.9676C46.5876 43.119 45.7384 42.2993 45.2871 41.8113C45.2871 41.8113 42.7594 44.264 41.6633 44.9978C39.4203 46.4998 35.7258 48.4788 30.4412 48.5292C23.5598 48.5953 24.0566 45.1353 20.0996 42.7817C19.8688 42.6445 20.6544 42.1943 20.6576 42.1938L20.6575 42.1937Z" fill="#434242"/>
</g>
<defs>
<linearGradient id="paint0_linear_2001_28" x1="0.323529" y1="68.5632" x2="114.678" y2="68.5632" gradientUnits="userSpaceOnUse">
<stop stop-color="#085293"/>
<stop offset="1" stop-color="#0E99D6"/>
</linearGradient>
<clipPath id="clip0_2001_28">
<rect width="115" height="95" fill="white"/>
</clipPath>
</defs>
</svg>
