<svg width="102" height="90" viewBox="0 0 102 90" fill="none" xmlns="http://www.w3.org/2000/svg">
<path fill-rule="evenodd" clip-rule="evenodd" d="M102 3C102 1.34315 100.657 0 99 0H3C1.34315 0 0 1.34315 0 3V75C0 76.6569 1.34315 78 3 78H42.5197C43.7104 78 44.7884 78.7042 45.2669 79.7946L48.7528 87.7392C49.8027 90.1319 53.1973 90.1319 54.2472 87.7392L57.7331 79.7946C58.2116 78.7042 59.2896 78 60.4803 78H99C100.657 78 102 76.6569 102 75V3Z" fill="white"/>
<g clip-path="url(#clip0_168_1333)">
<path fill-rule="evenodd" clip-rule="evenodd" d="M26.3512 26.8369C23.7943 26.4665 21.2373 26.2512 18.6805 26.1913C16.3111 26.3143 16.5776 28.8169 18.6638 28.43C21.1891 28.162 23.4044 28.012 25.8506 28.2993L26.3512 26.8369Z" fill="#1592D1"/>
<path fill-rule="evenodd" clip-rule="evenodd" d="M76.6489 26.8369C79.2057 26.4665 81.7627 26.2512 84.3195 26.1913C86.6889 26.3143 86.4225 28.8169 84.3363 28.43C81.811 28.162 79.5957 28.012 77.1494 28.2993L76.6489 26.8369Z" fill="#1592D1"/>
<path fill-rule="evenodd" clip-rule="evenodd" d="M67.1754 18.2701C74.5477 18.2701 80.5242 23.849 80.5242 30.7311C80.5242 31.1082 80.5051 31.481 80.47 31.8494C81.8005 31.1813 83.6809 31.3054 84.495 32.5625C84.8756 33.1502 85.0538 34.1021 84.7886 34.7578C83.881 37.0021 80.683 36.156 79.7149 35.0139C77.8441 39.7862 72.9359 43.1921 67.1754 43.1921C60.2546 43.1921 54.5642 38.2757 53.8932 31.9801C52.3668 32.6542 50.8402 32.6074 49.3138 31.9418C48.6618 38.2557 42.9628 43.1921 36.0281 43.1921C30.1518 43.1921 25.1627 39.6482 23.3795 34.7249C22.7661 35.9942 19.0961 37.1885 18.1132 34.7579C17.8479 34.1022 18.0262 33.1503 18.4069 32.5625C19.2888 31.2009 21.4213 31.1686 22.7514 32.0322C22.7039 31.6047 22.6793 31.1706 22.6793 30.7313C22.6793 23.8491 28.6556 18.2701 36.0281 18.2701C43.0555 18.2701 48.8144 23.3391 49.3379 29.7741C50.8475 29.0804 52.3574 29.1116 53.8667 29.7617C54.3966 23.3328 60.1526 18.2701 67.1754 18.2701L67.1754 18.2701Z" fill="#EE761C"/>
<path fill-rule="evenodd" clip-rule="evenodd" d="M67.1753 22.4268C71.5794 22.4268 75.1494 25.7594 75.1494 29.8707C75.1494 33.9818 71.5794 37.3145 67.1753 37.3145C62.7712 37.3145 59.2012 33.9818 59.2012 29.8707C59.2012 25.7594 62.7712 22.4268 67.1753 22.4268Z" fill="#FEFEFE"/>
<path fill-rule="evenodd" clip-rule="evenodd" d="M67.1754 24.4326C70.9019 24.4326 73.9228 27.2525 73.9228 30.7312C73.9228 34.2098 70.9019 37.0298 67.1754 37.0298C63.449 37.0298 60.4282 34.2098 60.4282 30.7312C60.4282 27.2525 63.449 24.4326 67.1754 24.4326Z" fill="#1592D1"/>
<path fill-rule="evenodd" clip-rule="evenodd" d="M67.1752 26.8576C69.467 26.8576 71.3247 28.5918 71.3247 30.7312C71.3247 32.8705 69.467 34.6046 67.1752 34.6046C64.8836 34.6046 63.0259 32.8705 63.0259 30.7312C63.0259 28.5919 64.8836 26.8576 67.1752 26.8576Z" fill="#2B2A29" stroke="#2B2A29" stroke-width="0.756018" stroke-miterlimit="22.9256"/>
<path fill-rule="evenodd" clip-rule="evenodd" d="M69.2361 26.8326C70.2436 26.8326 71.0602 27.5949 71.0602 28.5353C71.0602 29.4756 70.2436 30.2379 69.2361 30.2379C68.2288 30.2379 67.4121 29.4756 67.4121 28.5353C67.4121 27.5949 68.2287 26.8326 69.2361 26.8326Z" fill="#FEFEFE"/>
<path fill-rule="evenodd" clip-rule="evenodd" d="M32.7594 19.1886C31.9313 18.9874 31.0367 17.9502 30.7466 17.1436C30.6003 16.7372 30.4044 13.627 31.3434 15.4526C31.7204 16.1861 32.5373 17.0789 33.0983 17.2174C33.8802 17.4108 33.5936 16.2371 33.7092 15.5706C33.8378 14.8314 33.9987 11.5411 34.7957 12.0541C35.3649 12.4205 36.1505 14.2043 36.0905 15.4182C36.0717 15.8009 35.8071 17.515 36.3097 17.4209C36.9199 17.3065 37.9948 14.9278 38.0901 14.3802C38.1421 14.0803 38.6067 12.4597 39.1354 12.8245C39.7609 13.2561 39.7163 15.7454 39.4929 16.4083C38.9441 18.0356 37.5477 19.1191 36.6784 19.2855C35.2701 19.5551 34.1074 19.5161 32.7595 19.1886H32.7594Z" fill="#434242"/>
<path fill-rule="evenodd" clip-rule="evenodd" d="M64.0739 19.1886C63.2458 18.9874 62.3511 17.9502 62.0611 17.1436C61.9148 16.7372 61.7189 13.627 62.6579 15.4526C63.0349 16.1861 63.8517 17.0789 64.4127 17.2174C65.1947 17.4108 64.908 16.2371 65.0237 15.5706C65.1522 14.8314 65.3132 11.5411 66.1101 12.0541C66.6794 12.4205 67.4649 14.2043 67.4049 15.4182C67.3861 15.8009 67.1215 17.515 67.6241 17.4209C68.2342 17.3065 69.3092 14.9278 69.4045 14.3802C69.4565 14.0803 69.9211 12.4597 70.4499 12.8245C71.0753 13.2561 71.0308 15.7454 70.8074 16.4083C70.2585 18.0356 68.8621 19.1191 67.9929 19.2855C66.5846 19.5551 65.4219 19.5161 64.074 19.1886H64.0739Z" fill="#434242"/>
<path fill-rule="evenodd" clip-rule="evenodd" d="M62.3007 38.1092C64.4452 38.5892 67.1255 38.8724 67.3561 39.3189C67.5111 39.619 67.1594 41.3405 66.5366 41.3785C65.6796 41.4305 65.3479 40.9072 64.5645 39.873C63.7227 38.7612 61.6814 37.9706 62.3007 38.1092V38.1092Z" fill="#434242"/>
<path fill-rule="evenodd" clip-rule="evenodd" d="M63.5094 58.3198H63.5317C64.2805 58.3198 64.9073 58.2427 65.4121 58.089C65.9169 57.9349 66.3254 57.7155 66.6373 57.4306C66.9494 57.1456 67.1705 56.8093 67.301 56.4217C67.4315 56.034 67.4968 55.6122 67.4968 55.1562C67.4968 54.7002 67.3662 54.2557 67.1053 53.8225C66.8445 53.3891 66.436 53.0644 65.8802 52.8477V52.7964C66.2999 52.6139 66.6317 52.3689 66.8755 52.0612C67.1196 51.7534 67.2416 51.3143 67.2416 50.7444C67.2416 49.8439 66.9437 49.1541 66.3481 48.6752C65.7525 48.1965 64.8592 47.957 63.6679 47.957C63.2481 47.957 62.8483 47.9912 62.4682 48.0595C62.0882 48.128 61.7533 48.2278 61.4643 48.359C61.1749 48.4899 60.9452 48.6439 60.7749 48.8207C60.6048 48.9972 60.5197 49.1883 60.5197 49.3936C60.5197 49.7469 60.6048 49.9806 60.7749 50.0946C60.9452 50.2086 61.1778 50.2657 61.4726 50.2657C61.6654 50.2657 61.8413 50.2457 62.0003 50.2057C62.1589 50.1657 62.3177 50.1203 62.4766 50.0689C62.6355 50.0177 62.8028 49.9719 62.9786 49.9322C63.1545 49.8922 63.3616 49.8723 63.5997 49.8723C64.5187 49.8723 64.9781 50.2371 64.9781 50.9666C64.9781 51.2974 64.8505 51.5395 64.5952 51.6935C64.34 51.8473 64.0366 51.9243 63.6848 51.9243H63.0723C62.6411 51.9243 62.2922 52.0126 62.0257 52.1892C61.759 52.3661 61.6258 52.6026 61.6258 52.8989C61.6258 53.2182 61.7589 53.4576 62.0257 53.6172C62.2922 53.7767 62.6411 53.8566 63.0723 53.8566H63.6848C64.1387 53.8566 64.4905 53.979 64.74 54.2243C64.9894 54.4693 65.1144 54.7571 65.1144 55.0877C65.1144 55.4526 64.9867 55.7403 64.7314 55.9513C64.4761 56.1622 64.0934 56.2677 63.5828 56.2677C63.1517 56.2677 62.8311 56.2391 62.6213 56.1822C62.4114 56.1251 62.2355 56.0653 62.0937 56.0025C61.9519 55.9398 61.8158 55.88 61.6854 55.8231C61.5548 55.7661 61.3535 55.7375 61.0812 55.7375C60.809 55.7375 60.5821 55.806 60.4005 55.9427C60.2192 56.0796 60.1283 56.3018 60.1283 56.6096C60.1283 56.9059 60.2163 57.1624 60.392 57.3792C60.5678 57.5957 60.809 57.7724 61.1153 57.9092C61.4216 58.046 61.7817 58.1486 62.1959 58.217C62.6035 58.2844 63.0413 58.3186 63.5094 58.3197L63.5094 58.3198ZM23.6938 52.0439V56.6953C23.6938 57.7783 24.074 58.3198 24.834 58.3198C25.5942 58.3198 25.9743 57.7783 25.9743 56.6953V49.5131C25.9743 49.0116 25.892 48.6267 25.7274 48.359C25.563 48.091 25.2937 47.9571 24.9192 47.9571C24.6583 47.9571 24.437 48.0227 24.2554 48.1536C24.0741 48.2848 23.8925 48.4701 23.711 48.7095L19.4736 54.3354V49.5986C19.4736 48.5042 19.0937 47.957 18.3334 47.957C17.5733 47.957 17.1934 48.5042 17.1934 49.5986V56.9517C17.1934 57.419 17.2728 57.7639 17.4315 57.9864C17.5904 58.2086 17.8512 58.3198 18.2145 58.3198C18.464 58.3198 18.6937 58.2656 18.9035 58.1574C19.1134 58.049 19.3261 57.8466 19.5418 57.5503L23.6939 52.0439L23.6938 52.0439ZM30.671 56.6953V54.1131H34.8913V56.6953C34.8913 57.7783 35.2713 58.3198 36.0313 58.3198C36.7916 58.3198 37.1716 57.7783 37.1716 56.6953V49.5986C37.1716 48.5043 36.7916 47.9571 36.0313 47.9571C35.2712 47.9571 34.8913 48.5043 34.8913 49.5986V51.9756H30.671V49.5986C30.671 48.5043 30.2909 47.9571 29.5308 47.9571C28.7707 47.9571 28.3906 48.5043 28.3906 49.5986V56.6953C28.3906 57.7783 28.7707 58.3198 29.5308 58.3198C30.2909 58.3198 30.671 57.7783 30.671 56.6953ZM40.6773 58.2H42.9406C44.1092 58.2 44.9996 57.9236 45.6124 57.3706C46.2249 56.8179 46.5312 56.0797 46.5312 55.1562C46.5312 54.5292 46.4007 54.0418 46.1398 53.694C45.8789 53.3466 45.4534 53.0757 44.8635 52.882V52.8477C45.3399 52.6084 45.6576 52.3005 45.8164 51.9244C45.9753 51.5481 46.0547 51.1091 46.0547 50.6076C46.0547 49.8439 45.7341 49.2339 45.0932 48.7779C44.4523 48.3219 43.6156 48.0939 42.5833 48.0939H40.7114C40.0646 48.0939 39.6393 48.2222 39.4351 48.4787C39.2308 48.7353 39.1287 49.1427 39.1287 49.7014V56.7465C39.1287 57.2937 39.2337 57.6728 39.4435 57.8836C39.6534 58.0945 40.0646 58.2 40.6773 58.2ZM41.409 56.2164V53.8394H42.5152C43.1277 53.8394 43.5475 53.9335 43.7744 54.1215C44.0013 54.3098 44.1147 54.6317 44.1147 55.0877C44.1147 55.4526 44.0013 55.732 43.7744 55.9257C43.5475 56.1194 43.1391 56.2164 42.5493 56.2164H41.409ZM41.409 52.0439V50.0604H42.396C43.2922 50.0604 43.7405 50.3853 43.7405 51.0351C43.7405 51.3999 43.6439 51.6593 43.4512 51.8131C43.2583 51.9671 42.9065 52.0439 42.396 52.0439H41.409ZM55.4655 52.0439V56.6953C55.4655 57.7783 55.8455 58.3198 56.6057 58.3198C57.3658 58.3198 57.7457 57.7783 57.7457 56.6953V49.5131C57.7457 49.0116 57.6634 48.6267 57.4989 48.359C57.3345 48.091 57.065 47.9571 56.6907 47.9571C56.4298 47.9571 56.2086 48.0227 56.027 48.1536C55.8456 48.2848 55.664 48.4701 55.4824 48.7095L51.2452 54.3354V49.5986C51.2452 48.5042 50.865 47.957 50.1049 47.957C49.3449 47.957 48.965 48.5042 48.965 49.5986V56.9517C48.965 57.419 49.0443 57.7639 49.2031 57.9864C49.362 58.2086 49.6228 58.3198 49.9858 58.3198C50.2355 58.3198 50.4653 58.2656 50.6751 58.1574C50.885 58.049 51.0976 57.8466 51.3133 57.5503L55.4655 52.0439L55.4655 52.0439ZM74.3378 48.0938H71.7681C71.1214 48.0938 70.6959 48.2222 70.4919 48.4786C70.2876 48.7352 70.1854 49.1426 70.1854 49.7013V56.7465C70.1854 57.2937 70.2905 57.6728 70.5003 57.8835C70.7102 58.0945 71.1214 58.1999 71.7341 58.1999H74.4057C75.4949 58.1999 76.0395 57.8465 76.0395 57.1397C76.0395 56.4216 75.4949 56.0624 74.4057 56.0624H72.4659V54.1643H74.0826C75.1603 54.1643 75.6992 53.8108 75.6992 53.104C75.6992 52.3973 75.1603 52.0438 74.0826 52.0438H72.4659V50.2312H74.3378C75.4267 50.2312 75.9714 49.8778 75.9714 49.171C75.9714 48.453 75.4268 48.0937 74.3378 48.0937V48.0938ZM81.7402 52.8648H80.7532V50.2143H81.7402C82.7953 50.2143 83.3228 50.653 83.3228 51.5309C83.3228 52.4201 82.7953 52.8648 81.7402 52.8648ZM80.7532 56.6952V54.9509H82.3017C83.4136 54.9509 84.2757 54.646 84.8885 54.0361C85.501 53.4263 85.8073 52.5911 85.8073 51.5309C85.8073 50.4821 85.4812 49.6472 84.8288 49.0257C84.1765 48.4045 83.2718 48.0938 82.1145 48.0938H80.0553C79.4087 48.0938 78.9833 48.2222 78.7792 48.4786C78.5749 48.7352 78.4728 49.1426 78.4728 49.7013V56.6953C78.4728 57.7783 78.8529 58.3198 79.613 58.3198C80.3731 58.3198 80.7532 57.7783 80.7532 56.6953V56.6952Z" fill="url(#paint0_linear_168_1333)"/>
<path fill-rule="evenodd" clip-rule="evenodd" d="M17.849 61.94H85.1514C85.4198 61.94 85.6395 61.7193 85.6395 61.4495V61.4494C85.6395 61.1796 85.4198 60.9589 85.1514 60.9589H17.849C17.5805 60.9589 17.3608 61.1796 17.3608 61.4494V61.4495C17.3608 61.7193 17.5805 61.94 17.849 61.94Z" fill="#EE761C"/>
<path fill-rule="evenodd" clip-rule="evenodd" d="M43.312 26.8369C48.8664 26.0321 54.4447 25.9626 59.9989 26.6216C59.7584 27.0767 59.5799 27.5618 59.4394 28.0578C54.2467 27.3827 49.0207 27.4516 43.8281 28.2951C43.6563 28.323 43.987 28.2166 43.815 28.2463C43.6638 27.6662 43.4754 27.2176 43.312 26.8369Z" fill="#1592D1"/>
<path fill-rule="evenodd" clip-rule="evenodd" d="M36.0279 22.4268C40.4319 22.4268 44.002 25.7594 44.002 29.8707C44.002 33.9818 40.4319 37.3145 36.0279 37.3145C31.6239 37.3145 28.0537 33.9818 28.0537 29.8707C28.0537 25.7594 31.6239 22.4268 36.0279 22.4268Z" fill="#FEFEFE"/>
<path fill-rule="evenodd" clip-rule="evenodd" d="M36.028 24.4326C39.7545 24.4326 42.7753 27.2525 42.7753 30.7312C42.7753 34.2098 39.7545 37.0298 36.028 37.0298C32.3016 37.0298 29.2808 34.2098 29.2808 30.7312C29.2808 27.2525 32.3016 24.4326 36.028 24.4326Z" fill="#1592D1"/>
<path fill-rule="evenodd" clip-rule="evenodd" d="M36.0278 26.8576C38.3196 26.8576 40.1773 28.5918 40.1773 30.7312C40.1773 32.8705 38.3196 34.6046 36.0278 34.6046C33.7361 34.6046 31.8784 32.8705 31.8784 30.7312C31.8784 28.5919 33.7361 26.8576 36.0278 26.8576Z" fill="#2B2A29" stroke="#2B2A29" stroke-width="0.756018" stroke-miterlimit="22.9256"/>
<path fill-rule="evenodd" clip-rule="evenodd" d="M38.0886 26.8326C39.0961 26.8326 39.9127 27.5949 39.9127 28.5353C39.9127 29.4756 39.0961 30.2379 38.0886 30.2379C37.0812 30.2379 36.2646 29.4756 36.2646 28.5353C36.2646 27.5949 37.0812 26.8326 38.0886 26.8326Z" fill="#FEFEFE"/>
<path fill-rule="evenodd" clip-rule="evenodd" d="M29.3944 37.3162C30.3383 37.1206 31.9715 39.5638 35.7211 39.5229C37.7585 39.5006 38.2044 39.4845 40.1254 38.9221C41.1351 38.6265 42.1214 37.9786 43.2784 37.2984C43.9599 36.8975 43.5644 36.7275 43.7237 36.5268C44.2427 35.8733 45.1871 37.5458 45.0179 37.7806C44.9525 37.8714 44.4429 37.3796 44.1721 37.0868C44.1721 37.0868 42.6555 38.5584 41.9979 38.9987C40.652 39.8999 38.4354 41.0872 35.2646 41.1175C31.1358 41.1572 31.4338 39.0811 29.0597 37.669C28.9211 37.5867 29.3925 37.3166 29.3944 37.3163L29.3944 37.3162Z" fill="#434242"/>
</g>
<defs>
<linearGradient id="paint0_linear_168_1333" x1="17.194" y1="53.1379" x2="85.8065" y2="53.1379" gradientUnits="userSpaceOnUse">
<stop stop-color="#085293"/>
<stop offset="1" stop-color="#0E99D6"/>
</linearGradient>
<clipPath id="clip0_168_1333">
<rect width="69" height="57" fill="white" transform="translate(17 12)"/>
</clipPath>
</defs>
</svg>
