<svg width="48" height="49" viewBox="0 0 48 49" fill="none" xmlns="http://www.w3.org/2000/svg">
<path d="M24 48.5C37.2548 48.5 48 37.7548 48 24.5C48 11.2452 37.2548 0.5 24 0.5C10.7452 0.5 0 11.2452 0 24.5C0 37.7548 10.7452 48.5 24 48.5Z" fill="#00559F"/>
<path d="M31.4516 22.8122L21.3658 15.8962C20.913 15.5669 20.419 15.4022 20.0485 15.4022C19.2663 15.4022 18.8135 16.0197 18.8135 17.0077V31.9511C18.8135 32.9803 19.2663 33.5566 20.0073 33.5566C20.419 33.5566 20.8718 33.3919 21.3246 33.0626L31.4104 26.1466C32.0691 25.6938 32.4395 25.1175 32.4395 24.4588C32.4395 23.8002 32.1102 23.265 31.4516 22.8122Z" fill="white"/>
</svg>
