<svg width="32" height="32" viewBox="0 0 32 32" fill="none" xmlns="http://www.w3.org/2000/svg">
<g clip-path="url(#clip0_2003_879)">
<path d="M24.5 32H7.5C3.3645 32 0 28.6355 0 24.5V7.5C0 3.3645 3.3645 0 7.5 0H24.5C28.6355 0 32 3.3645 32 7.5V24.5C32 28.6355 28.6355 32 24.5 32ZM7.5 2.5C4.743 2.5 2.5 4.743 2.5 7.5V24.5C2.5 27.257 4.743 29.5 7.5 29.5H24.5C27.257 29.5 29.5 27.257 29.5 24.5V7.5C29.5 4.743 27.257 2.5 24.5 2.5H7.5ZM21.6875 14.7489H17.3125V10.3125C17.3125 9.62212 16.7529 9.0625 16.0625 9.0625C15.3721 9.0625 14.8125 9.62212 14.8125 10.3125V14.7489H10.4375C9.74712 14.7489 9.1875 15.3085 9.1875 15.9989C9.1875 16.6892 9.74712 17.2489 10.4375 17.2489H14.8125V21.625C14.8125 22.3154 15.3721 22.875 16.0625 22.875C16.7529 22.875 17.3125 22.3154 17.3125 21.625V17.2489H21.6875C23.3436 17.1878 23.3435 14.8099 21.6875 14.7489Z" fill="#EE761C"/>
</g>
<defs>
<clipPath id="clip0_2003_879">
<rect width="32" height="32" fill="white"/>
</clipPath>
</defs>
</svg>
