<svg width="135" height="101" viewBox="0 0 135 101" fill="none" xmlns="http://www.w3.org/2000/svg">
<path d="M104.882 100.482C95.1968 100.245 87.9921 96.8055 83.2677 90.1638C78.7795 83.2848 76.5354 75.2198 76.5354 65.9688C76.5354 55.5317 78.7795 45.9249 83.2677 37.1483C87.7559 28.1345 93.4252 20.5439 100.276 14.3765C107.362 7.97197 114.921 3.34646 122.953 0.5L135 18.6462C131.693 20.5439 128.15 23.2717 124.37 26.8298C120.591 30.1507 117.165 33.8274 114.094 37.8599C111.024 41.6552 108.898 45.3319 107.717 48.89C112.441 49.1272 116.575 50.3132 120.118 52.448C123.661 54.5829 126.496 57.548 128.622 61.3433C130.748 64.9014 131.811 69.2897 131.811 74.5082C131.811 83.0476 129.094 89.5707 123.661 94.0777C118.465 98.5846 112.205 100.719 104.882 100.482ZM28.7008 100.482C18.7795 100.482 11.4567 97.0427 6.73228 90.1638C2.24409 83.2848 0 75.2198 0 65.9688C0 55.5317 2.24409 45.9249 6.73228 37.1483C11.2205 28.1345 16.8898 20.5439 23.7402 14.3765C30.8268 7.97197 38.2677 3.34646 46.063 0.5L58.1102 18.6462C55.0394 20.5439 51.6142 23.2717 47.8346 26.8298C44.0551 30.1507 40.6299 33.8274 37.5591 37.8599C34.4882 41.6552 32.3622 45.3319 31.1811 48.89C35.6693 49.1272 39.685 50.3132 43.2283 52.448C47.0079 54.5829 49.9606 57.548 52.0866 61.3433C54.2126 64.9014 55.2756 69.2897 55.2756 74.5082C55.2756 83.0476 52.5591 89.5707 47.126 94.0777C41.6929 98.3474 35.5512 100.482 28.7008 100.482Z" fill="#F1F9FF"/>
</svg>
