<svg width="135" height="101" viewBox="0 0 135 101" fill="none" xmlns="http://www.w3.org/2000/svg">
<path d="M30.1181 0.517783C39.8032 0.754989 47.0079 4.19447 51.7323 10.8362C56.2205 17.7152 58.4646 25.7802 58.4646 35.0312C58.4646 45.4683 56.2205 55.0751 51.7323 63.8517C47.2441 72.8655 41.5748 80.4561 34.7244 86.6235C27.6378 93.028 20.0787 97.6535 12.0472 100.5L1.58639e-06 82.3537C3.30708 80.4561 6.85039 77.7282 10.6299 74.1702C14.4094 70.8493 17.8346 67.1726 20.9055 63.1401C23.9764 59.3448 26.1024 55.6681 27.2835 52.11C22.5591 51.8728 18.4252 50.6868 14.8819 48.5519C11.3386 46.4171 8.50395 43.452 6.37797 39.6567C4.25199 36.0986 3.18899 31.7103 3.18899 26.4918C3.18899 17.9524 5.90553 11.4292 11.3386 6.92234C16.5354 2.41543 22.7953 0.280569 30.1181 0.517783ZM106.299 0.517789C116.22 0.51779 123.543 3.95727 128.268 10.8362C132.756 17.7152 135 25.7802 135 35.0312C135 45.4683 132.756 55.0751 128.268 63.8517C123.78 72.8655 118.11 80.4561 111.26 86.6235C104.173 93.028 96.7323 97.6535 88.937 100.5L76.8898 82.3538C79.9606 80.4561 83.3858 77.7283 87.1654 74.1702C90.9449 70.8493 94.3701 67.1726 97.4409 63.1401C100.512 59.3448 102.638 55.6681 103.819 52.11C99.3307 51.8728 95.315 50.6868 91.7717 48.552C87.9921 46.4171 85.0394 43.452 82.9134 39.6567C80.7874 36.0986 79.7244 31.7103 79.7244 26.4918C79.7244 17.9524 82.441 11.4292 87.874 6.92234C93.3071 2.65265 99.4488 0.517789 106.299 0.517789Z" fill="#F1F9FF"/>
</svg>
