<svg width="64" height="64" viewBox="0 0 64 64" fill="none" xmlns="http://www.w3.org/2000/svg">
<circle cx="32" cy="32" r="32" fill="#2F80ED"/>
<path d="M37.1321 41.2578C36.9714 41.2578 36.8118 41.2102 36.6749 41.1174L31.5024 37.6088L28.7282 39.605C28.5106 39.7614 28.2302 39.8008 27.9775 39.7105C27.7252 39.62 27.5336 39.411 27.4652 39.1518L26.0722 33.8728L21.0949 31.9696C20.7816 31.8498 20.5738 31.55 20.5715 31.2145C20.5692 30.879 20.7729 30.5764 21.0847 30.4523L40.0101 22.9218C40.096 22.8853 40.1869 22.8642 40.2785 22.8586C40.3113 22.8566 40.3442 22.8566 40.3769 22.8585C40.5667 22.8698 40.7531 22.9471 40.8986 23.0897C40.9137 23.1045 40.928 23.1196 40.9416 23.1353C41.0621 23.273 41.1283 23.4409 41.1408 23.6119C41.1438 23.6549 41.1436 23.6984 41.1398 23.7419C41.1372 23.773 41.1328 23.8039 41.1265 23.8347L37.932 40.5959C37.8806 40.8652 37.6973 41.0906 37.4441 41.1956C37.3437 41.2372 37.2376 41.2578 37.1321 41.2578ZM31.9566 35.9489L36.5641 39.0742L39.0497 26.0321L30.0722 34.6707L31.9349 35.9343C31.9424 35.9389 31.9495 35.9439 31.9566 35.9489ZM28.1211 35.2539L28.738 37.5915L30.0671 36.6351L28.3267 35.4545C28.2458 35.3998 28.1765 35.3316 28.1211 35.2539ZM23.6263 31.1938L27.0439 32.5004C27.2887 32.594 27.4735 32.7999 27.5404 33.0533L27.9738 34.6959C27.9937 34.5064 28.0796 34.3282 28.2191 34.1938L36.7734 25.9626L23.6263 31.1938Z" fill="white"/>
</svg>
