<svg width="64" height="64" viewBox="0 0 64 64" fill="none" xmlns="http://www.w3.org/2000/svg">
<circle cx="32" cy="32" r="32" fill="#5FBC74"/>
<path d="M39.2459 24.7016C37.3116 22.7764 34.7383 21.7154 31.9996 21.7143C29.267 21.7143 26.6897 22.7743 24.7426 24.6991C22.7921 26.6272 21.7169 29.1895 21.7144 31.9047V31.9098C21.7147 33.5532 22.1468 35.211 22.9672 36.7243L21.7425 42.2857L27.3734 41.0061C28.7995 41.7242 30.3908 42.1027 31.9957 42.1033H31.9998C34.7319 42.1033 37.3092 41.0432 39.2566 39.1182C41.2089 37.1885 42.2845 34.6295 42.2858 31.9126C42.2866 29.2148 41.2071 26.6539 39.2459 24.7016ZM31.9996 40.4978H31.996C30.5549 40.4971 29.1271 40.1357 27.867 39.4522L27.6007 39.3078L23.8564 40.1586L24.6697 36.466L24.5129 36.1958C23.7334 34.8528 23.3215 33.3703 23.3215 31.908C23.3245 27.175 27.217 23.3199 31.9993 23.3199C34.3096 23.3208 36.4804 24.2156 38.1117 25.839C39.7677 27.4876 40.6793 29.6444 40.6785 31.9121C40.6766 36.6463 36.7832 40.4978 31.9996 40.4978Z" fill="white"/>
<path d="M29.2009 27.4142H28.75C28.5931 27.4142 28.3383 27.4729 28.1227 27.7072C27.907 27.9417 27.2992 28.5084 27.2992 29.661C27.2992 30.8136 28.1424 31.9273 28.2599 32.0838C28.3775 32.2401 29.8874 34.681 32.2788 35.62C34.2662 36.4003 34.6707 36.2451 35.102 36.206C35.5334 36.1671 36.494 35.6395 36.6901 35.0925C36.8861 34.5455 36.8861 34.0766 36.8274 33.9786C36.7685 33.881 36.6115 33.8225 36.3764 33.7054C36.141 33.5882 34.9879 33.0118 34.7722 32.9335C34.5565 32.8555 34.3997 32.8164 34.2428 33.0511C34.0859 33.2853 33.6238 33.827 33.4865 33.9834C33.3494 34.1398 33.2121 34.1594 32.9768 34.0422C32.7414 33.9247 31.9914 33.6729 31.0927 32.875C30.3931 32.2539 29.9077 31.462 29.7704 31.2275C29.6332 30.9932 29.7558 30.8664 29.8737 30.7494C29.9795 30.6446 30.1223 30.5012 30.2399 30.3645C30.3574 30.2276 30.3909 30.13 30.4695 29.9737C30.5478 29.8173 30.5086 29.6805 30.4498 29.5634C30.3909 29.4462 29.9394 28.2877 29.7302 27.8244C29.5539 27.4342 29.3685 27.4211 29.2009 27.4142Z" fill="white"/>
</svg>
